<svg width="301" height="82" viewBox="0 0 301 82" fill="none" xmlns="http://www.w3.org/2000/svg">
<path d="M66.73 13.7448C74.2434 21.3256 78 30.652 78 41.724C78 52.796 74.2434 62.1224 66.73 69.7032C59.1179 77.3837 49.8745 81.224 39 81.224C28.1255 81.224 18.8821 77.3837 11.27 69.7032C3.75666 62.1224 -1.32032e-07 52.796 0 41.724C1.32032e-07 30.652 3.75666 21.3256 11.27 13.7448C18.8821 6.06427 28.1255 2.224 39 2.224C49.8745 2.224 59.1179 6.06427 66.73 13.7448ZM48.3978 65.0649C55.1202 65.0649 59.7058 62.8206 64.1545 58.332C68.6031 53.8433 60.3846 48.3073 60.3846 41.724C60.3846 35.1407 68.6031 29.6047 64.1545 25.1161C59.7058 20.6274 55.1202 18.3831 48.3978 18.3831C41.6754 18.3831 36.0898 20.6274 31.6412 25.1161C27.1925 29.6047 24.9682 35.1407 24.9682 41.724C24.9682 48.3073 27.1925 53.8433 31.6412 58.332C36.0898 62.8206 41.6754 65.0649 48.3978 65.0649Z" fill="#212121"/>
<path d="M152.056 47.616H113.848C114.616 51.2 116.344 53.984 119.032 55.968C121.784 57.952 125.176 58.944 129.208 58.944C134.648 58.944 138.776 56.96 141.592 52.992L150.136 57.984C145.464 64.96 138.456 68.448 129.112 68.448C121.368 68.448 115.064 66.08 110.2 61.344C105.4 56.544 103 50.496 103 43.2C103 36.096 105.368 30.112 110.104 25.248C114.776 20.384 120.856 17.952 128.344 17.952C135.32 17.952 141.08 20.416 145.624 25.344C150.168 30.272 152.44 36.256 152.44 43.296C152.44 44.576 152.312 46.016 152.056 47.616ZM113.752 39.168H141.976C141.272 35.392 139.672 32.48 137.176 30.432C134.744 28.384 131.768 27.36 128.248 27.36C124.408 27.36 121.208 28.416 118.648 30.528C116.088 32.64 114.456 35.52 113.752 39.168Z" fill="#212121"/>
<path d="M179.138 68.448C171.906 68.448 165.858 66.016 160.994 61.152C156.194 56.224 153.794 50.24 153.794 43.2C153.794 36.032 156.194 30.048 160.994 25.248C165.858 20.384 171.906 17.952 179.138 17.952C183.81 17.952 188.066 19.072 191.906 21.312C195.746 23.552 198.626 26.56 200.546 30.336L191.618 35.52C190.53 33.216 188.866 31.424 186.626 30.144C184.45 28.8 181.922 28.128 179.042 28.128C174.818 28.128 171.266 29.568 168.386 32.448C165.57 35.392 164.162 38.976 164.162 43.2C164.162 47.424 165.57 51.008 168.386 53.952C171.266 56.832 174.818 58.272 179.042 58.272C181.858 58.272 184.386 57.632 186.626 56.352C188.93 55.008 190.658 53.184 191.81 50.88L200.738 55.968C198.69 59.808 195.714 62.848 191.81 65.088C187.97 67.328 183.746 68.448 179.138 68.448Z" fill="#212121"/>
<path d="M228.68 17.952C234.248 17.952 238.696 19.744 242.024 23.328C245.416 26.848 247.112 31.648 247.112 37.728V67.2H236.744V38.784C236.744 35.2 235.784 32.448 233.864 30.528C231.944 28.608 229.32 27.648 225.992 27.648C222.216 27.648 219.24 28.832 217.064 31.2C214.888 33.504 213.8 36.928 213.8 41.472V67.2H203.432V0H213.8V25.344C217 20.416 221.96 17.952 228.68 17.952Z" fill="#212121"/>
<path d="M293.083 61.152C288.219 66.016 282.236 68.448 275.132 68.448C268.027 68.448 262.044 66.016 257.18 61.152C252.252 56.224 249.788 50.24 249.788 43.2C249.788 36.16 252.252 30.176 257.18 25.248C262.044 20.384 268.027 17.952 275.132 17.952C282.236 17.952 288.219 20.384 293.083 25.248C298.011 30.176 300.475 36.16 300.475 43.2C300.475 50.24 298.011 56.224 293.083 61.152ZM260.155 43.2C260.155 47.552 261.595 51.168 264.475 54.048C267.355 56.928 270.907 58.368 275.132 58.368C279.355 58.368 282.908 56.928 285.788 54.048C288.668 51.168 290.108 47.552 290.108 43.2C290.108 38.848 288.668 35.232 285.788 32.352C282.908 29.472 279.355 28.032 275.132 28.032C270.907 28.032 267.355 29.472 264.475 32.352C261.595 35.232 260.155 38.848 260.155 43.2Z" fill="#212121"/>
</svg>

